<?xml version="1.0" encoding="UTF-8" standalone="no"?>
<svg
   id="Layer_1"
   data-name="Layer 1"
   viewBox="0 0 122.88 108.06"
   version="1.1"
   sodipodi:docname="back-arrow-icon.svg"
   inkscape:version="1.3 (0e150ed6c4, 2023-07-21)"
   xmlns:inkscape="http://www.inkscape.org/namespaces/inkscape"
   xmlns:sodipodi="http://sodipodi.sourceforge.net/DTD/sodipodi-0.dtd"
   xmlns="http://www.w3.org/2000/svg"
   xmlns:svg="http://www.w3.org/2000/svg"
   xmlns:rdf="http://www.w3.org/1999/02/22-rdf-syntax-ns#"
   xmlns:cc="http://creativecommons.org/ns#"
   xmlns:dc="http://purl.org/dc/elements/1.1/">
  <defs
     id="defs1" />
  <sodipodi:namedview
     id="namedview1"
     pagecolor="#ffffff"
     bordercolor="#000000"
     borderopacity="0.25"
     inkscape:showpageshadow="2"
     inkscape:pageopacity="0.0"
     inkscape:pagecheckerboard="0"
     inkscape:deskcolor="#d1d1d1"
     inkscape:zoom="7.9677958"
     inkscape:cx="61.434807"
     inkscape:cy="54.029999"
     inkscape:window-width="1920"
     inkscape:window-height="1057"
     inkscape:window-x="-8"
     inkscape:window-y="-8"
     inkscape:window-maximized="1"
     inkscape:current-layer="Layer_1" />
  <title
     id="title1">back-arrow</title>
  <path
     d="M63.94,24.28a14.28,14.28,0,0,0-20.36-20L4.1,44.42a14.27,14.27,0,0,0,0,20l38.69,39.35a14.27,14.27,0,0,0,20.35-20L48.06,68.41l60.66-.29a14.27,14.27,0,1,0-.23-28.54l-59.85.28,15.3-15.58Z"
     id="path1"
     style="fill:#f9f9f9" />
  <path
     style="fill:#ffffff;stroke-width:0.125505;fill-opacity:1"
     d="m 50.240476,107.5598 c -1.912062,-0.34684 -4.010203,-1.21665 -5.621233,-2.33036 C 43.513939,104.46535 42.04126,102.98933 19.583813,80.137218 10.7324,71.130252 3.2130596,63.392855 2.8741671,62.943002 1.6717901,61.346938 0.69299377,59.118656 0.29934526,57.081281 0.0399547,55.738774 0.0125659,53.327544 0.24187668,52.021915 0.61662107,49.88823 1.5937246,47.611557 2.8542998,45.934912 3.8914604,44.555422 43.788404,4.0550073 44.981958,3.1700398 c 3.968585,-2.94252524 9.510927,-3.55559525 14.113267,-1.5611486 5.578672,2.4175448 9.079422,8.3973758 8.450156,14.4341958 -0.258378,2.478735 -0.991422,4.516637 -2.372609,6.595981 -0.562534,0.846881 -2.066504,2.452727 -6.934591,7.404322 -3.418946,3.477596 -6.975334,7.11217 -7.903084,8.076831 L 48.64828,39.87415 73.616316,39.7669 c 36.670184,-0.157515 36.646424,-0.157621 38.028034,0.167989 4.56027,1.07474 8.20125,4.0691 9.99202,8.217496 2.34519,5.432728 1.15289,11.646666 -3.0302,15.792526 -2.1887,2.169223 -5.03952,3.585785 -8.05012,4.000085 -0.57942,0.07974 -11.5905,0.179768 -29.35417,0.26667 -15.634814,0.07649 -29.499883,0.150232 -30.811265,0.163876 l -2.384332,0.02481 7.740986,7.87719 c 4.257541,4.332455 8.027531,8.257631 8.377754,8.722613 2.072661,2.751827 3.118018,6.453208 2.774979,9.825592 -0.665634,6.543783 -5.357796,11.615683 -11.782482,12.736063 -1.278466,0.22294 -3.642311,0.22197 -4.877044,-0.002 z"
     id="path2" />
  <metadata
     id="metadata2">
    <rdf:RDF>
      <cc:Work
         rdf:about="">
        <dc:title>back-arrow</dc:title>
      </cc:Work>
    </rdf:RDF>
  </metadata>
</svg>
